<?xml version="1.0" encoding="utf-8"?>
<!-- Generator: Adobe Illustrator 25.3.1, SVG Export Plug-In . SVG Version: 6.00 Build 0)  -->
<svg version="1.1" id="Calque_1" xmlns="http://www.w3.org/2000/svg" xmlns:xlink="http://www.w3.org/1999/xlink" x="0px" y="0px"
	 viewBox="0 0 400 400" style="enable-background:new 0 0 400 400;" xml:space="preserve">
<style type="text/css">
	.st0{fill:#103646;}
</style>
<g>
	<g>
		<g>
			<g>
				<path class="st0" d="M120.9,213.3c-11.3,0-20.8-3.6-25.5-6.7l-2-1.3l5.4-15.4l3.2,2c2.9,1.8,10.5,5.3,18.7,5.3
					c6.1,0,10.8-1.6,13.9-4.8c2.5-2.6,3.9-6.2,3.8-10c-0.1-11.4-10.8-15.4-20.7-15.4h-9.9v-15.3h9.9c7,0,17.5-3.3,17.5-12.5
					c0-6.9-4.8-10.8-13.1-10.8c-6.6,0-13.1,3-16.6,5.5l-3.2,2.3L97,121.4l1.8-1.3c5.2-3.8,15.2-7.6,25.8-7.6
					c20.2,0,29.3,12.5,29.3,24.9c0,8.9-4.4,16.4-12.2,21.2c9.8,4.4,15.8,13.4,15.8,24.3C157.4,198,146.1,213.3,120.9,213.3z"/>
			</g>
			<g>
				<path class="st0" d="M271.5,213.3c-20.3,0-33.1-19.2-33.4-50.2c0-15.4,3.3-28.3,9.5-37.2s15-13.6,25.4-13.6
					c20.9,0,33.4,18.5,33.4,49.5C306.5,194.6,293.7,213.3,271.5,213.3z M272.4,128c-9.6,0-15.8,13.9-15.8,35.3
					c0,21.2,6,34.4,15.6,34.4c13.7,0,15.8-22.1,15.8-35.3C288,149.6,286,128,272.4,128z"/>
			</g>
			<path class="st0" d="M203.7,145.3c-6.4,0-12.3,1.8-17.3,5c4.5-11.3,14.1-18.9,27.1-21.1c2.4-0.4,4.8-0.6,6.9-0.6
				c0.6,0,1.2,0,1.7,0.1l3.2,0.2v-16.3h-3c-3.1,0-6.3,0.2-9.4,0.7c-12.3,1.5-23.1,6.5-31.1,14.4c-10.6,10.6-16.4,26-16.4,43.5
				c0,25.6,13.9,42.1,35.5,42.1c21.8,0,33.5-18.2,33.5-35.4C234.4,158.7,221.8,145.3,203.7,145.3z M201.3,196.1c-9.4,0-17-8.5-17-19
				s7.6-19,17-19s17,8.5,17,19S210.7,196.1,201.3,196.1z"/>
		</g>
		<path class="st0" d="M37.9,222.6c0-9.5,18.1-18.1,47.4-24.4l3.4-9.6c-46.2,8.9-76.2,23.3-76.2,39.4c0,24.5,68.7,44.8,158.5,48.4
			v-20C95.3,253.6,37.9,239.5,37.9,222.6z"/>
		<path class="st0" d="M387.4,228.1c0-16-29.2-30.1-74.4-39.1c-0.8,2.9-1.8,5.7-3,8.3c31.9,6.3,51.9,15.3,51.9,25.3
			c0,18.7-69.8,33.9-157,34.5v20C306.2,276.4,387.4,254.7,387.4,228.1z"/>
		<polygon class="st0" points="156.9,299.1 194.9,267.6 156.9,236.1 		"/>
	</g>
	<path class="st0" d="M329.4,100.7c-10.8,0-19.5,8.7-19.5,19.5s8.7,19.5,19.5,19.5s19.5-8.7,19.5-19.5
		C348.9,109.5,340.2,100.7,329.4,100.7z M329.4,129.7c-5.2,0-9.5-4.3-9.5-9.5s4.3-9.5,9.5-9.5s9.5,4.3,9.5,9.5
		C338.9,125.5,334.7,129.7,329.4,129.7z"/>
</g>
</svg>
